<svg data-v-423bf9ae="" xmlns="http://www.w3.org/2000/svg" viewBox="0 0 586 90" class="iconLeft"><!----><!----><!----><g data-v-423bf9ae="" id="9a0395b4-92ac-4fad-9250-f37728604ceb" fill="black" transform="matrix(6.1224488604322,0,0,6.1224488604322,63.4427534043416,10.714287480008146)"><path d="M2.93 8.34L3.91 8.34L3.91 9.39L3.91 9.39Q3.91 9.81 3.65 10.12L3.65 10.12L3.65 10.12Q3.39 10.43 2.98 10.50L2.98 10.50L0.94 10.50L0.94 10.50Q0.53 10.43 0.27 10.12L0.27 10.12L0.27 10.12Q0 9.81 0 9.39L0 9.39L0 1.81L0 1.81Q0 1.39 0.27 1.08L0.27 1.08L0.27 1.08Q0.53 0.77 0.94 0.70L0.94 0.70L2.98 0.70L2.98 0.70Q3.39 0.77 3.65 1.08L3.65 1.08L3.65 1.08Q3.91 1.39 3.91 1.81L3.91 1.81L3.91 2.86L2.93 2.86L2.93 1.81L2.93 1.81Q2.93 1.67 2.80 1.67L2.80 1.67L1.12 1.67L1.12 1.67Q0.98 1.67 0.98 1.81L0.98 1.81L0.98 9.39L0.98 9.39Q0.98 9.53 1.12 9.53L1.12 9.53L2.80 9.53L2.80 9.53Q2.93 9.53 2.93 9.39L2.93 9.39L2.93 8.34ZM5.75 0.70L7.81 0.70L7.81 0.70Q8.22 0.77 8.48 1.08L8.48 1.08L8.48 1.08Q8.75 1.39 8.75 1.81L8.75 1.81L8.75 9.39L8.75 9.39Q8.75 9.81 8.48 10.12L8.48 10.12L8.48 10.12Q8.22 10.43 7.81 10.50L7.81 10.50L5.75 10.50L5.75 10.50Q5.35 10.43 5.08 10.12L5.08 10.12L5.08 10.12Q4.82 9.81 4.82 9.39L4.82 9.39L4.82 1.81L4.82 1.81Q4.82 1.39 5.08 1.08L5.08 1.08L5.08 1.08Q5.35 0.77 5.75 0.70L5.75 0.70ZM7.77 9.39L7.77 1.81L7.77 1.81Q7.77 1.67 7.64 1.67L7.64 1.67L5.94 1.67L5.94 1.67Q5.80 1.67 5.80 1.81L5.80 1.81L5.80 9.39L5.80 9.39Q5.80 9.53 5.94 9.53L5.94 9.53L7.64 9.53L7.64 9.53Q7.77 9.53 7.77 9.39L7.77 9.39ZM9.66 10.50L9.66 4.62L10.64 4.62L10.64 10.50L9.66 10.50ZM9.66 0.70L12.49 0.70L12.49 0.70Q12.94 0.70 13.27 1.03L13.27 1.03L13.27 1.03Q13.59 1.36 13.59 1.82L13.59 1.82L13.59 4.48L13.59 4.48Q13.59 4.94 13.27 5.27L13.27 5.27L13.27 5.27Q12.94 5.60 12.49 5.60L12.49 5.60L12.14 5.60L13.59 10.50L12.54 10.50L10.85 4.62L12.49 4.62L12.49 4.62Q12.61 4.62 12.61 4.48L12.61 4.48L12.61 1.82L12.61 1.82Q12.61 1.68 12.49 1.68L12.49 1.68L10.64 1.68L10.64 4.62L9.66 1.68L9.66 0.70ZM15.44 0.70L17.50 0.70L17.50 0.70Q17.91 0.77 18.17 1.08L18.17 1.08L18.17 1.08Q18.44 1.39 18.44 1.81L18.44 1.81L18.44 9.39L18.44 9.39Q18.44 9.81 18.17 10.12L18.17 10.12L18.17 10.12Q17.91 10.43 17.50 10.50L17.50 10.50L15.44 10.50L15.44 10.50Q15.04 10.43 14.77 10.12L14.77 10.12L14.77 10.12Q14.50 9.81 14.50 9.39L14.50 9.39L14.50 1.81L14.50 1.81Q14.50 1.39 14.77 1.08L14.77 1.08L14.77 1.08Q15.04 0.77 15.44 0.70L15.44 0.70ZM17.46 9.39L17.46 1.81L17.46 1.81Q17.46 1.67 17.33 1.67L17.33 1.67L15.62 1.67L15.62 1.67Q15.48 1.67 15.48 1.81L15.48 1.81L15.48 9.39L15.48 9.39Q15.48 9.53 15.62 9.53L15.62 9.53L17.33 9.53L17.33 9.53Q17.46 9.53 17.46 9.39L17.46 9.39ZM22.29 0.70L23.27 0.70L23.27 10.50L22.29 10.50L22.29 10.50L22.26 10.50L20.33 4.03L20.33 10.50L19.35 10.50L19.35 0.70L20.33 0.70L20.33 0.71L22.29 7.18L22.29 0.70ZM27.52 10.50L26.28 2.67L25.56 7.20L26.28 7.20L26.28 8.18L25.41 8.18L25.03 10.50L24.04 10.50L24.42 8.18L24.04 8.18L24.04 7.20L24.57 7.20L25.61 0.70L26.95 0.70L28.52 10.50L27.52 10.50ZM32.55 0.70L33.54 0.70L31.98 10.50L30.63 10.50L29.06 0.70L30.06 0.70L31.30 8.54L32.55 0.70ZM35.36 0.70L35.36 10.50L34.38 10.50L34.38 0.70L35.36 0.70ZM36.27 10.50L36.27 4.62L37.25 4.62L37.25 10.50L36.27 10.50ZM36.27 0.70L39.10 0.70L39.10 0.70Q39.55 0.70 39.88 1.03L39.88 1.03L39.88 1.03Q40.21 1.36 40.21 1.82L40.21 1.82L40.21 4.48L40.21 4.48Q40.21 4.94 39.88 5.27L39.88 5.27L39.88 5.27Q39.55 5.60 39.10 5.60L39.10 5.60L38.75 5.60L40.21 10.50L39.16 10.50L37.46 4.62L39.10 4.62L39.10 4.62Q39.23 4.62 39.23 4.48L39.23 4.48L39.23 1.82L39.23 1.82Q39.23 1.68 39.10 1.68L39.10 1.68L37.25 1.68L37.25 4.62L36.27 1.68L36.27 0.70ZM44.03 0.71L45.01 0.71L45.01 9.39L45.01 9.39Q45.01 9.81 44.75 10.12L44.75 10.12L44.75 10.12Q44.49 10.43 44.09 10.50L44.09 10.50L42.06 10.50L42.06 10.50Q41.65 10.43 41.38 10.12L41.38 10.12L41.38 10.12Q41.12 9.81 41.12 9.39L41.12 9.39L41.12 0.71L42.10 0.71L42.10 9.39L42.10 9.39Q42.10 9.53 42.24 9.53L42.24 9.53L43.90 9.53L43.90 9.53Q44.03 9.53 44.03 9.39L44.03 9.39L44.03 0.71ZM49.69 2.86L48.71 2.86L48.71 1.81L48.71 1.81Q48.71 1.67 48.57 1.67L48.57 1.67L47.04 1.67L47.04 1.67Q46.90 1.67 46.90 1.81L46.90 1.81L46.90 4.47L46.90 4.47Q46.90 4.56 46.98 4.59L46.98 4.59L48.57 4.59L48.57 4.59Q49.04 4.59 49.36 4.92L49.36 4.92L49.36 4.92Q49.69 5.25 49.69 5.71L49.69 5.71L49.69 9.39L49.69 9.39Q49.69 9.81 49.42 10.12L49.42 10.12L49.42 10.12Q49.15 10.43 48.75 10.50L48.75 10.50L46.86 10.50L46.86 10.50Q46.45 10.43 46.19 10.12L46.19 10.12L46.19 10.12Q45.92 9.81 45.92 9.39L45.92 9.39L45.92 8.34L46.90 8.34L46.90 9.39L46.90 9.39Q46.90 9.53 47.04 9.53L47.04 9.53L48.57 9.53L48.57 9.53Q48.71 9.53 48.71 9.39L48.71 9.39L48.71 5.71L48.71 5.71Q48.71 5.61 48.62 5.59L48.62 5.59L47.04 5.59L47.04 5.59Q46.58 5.59 46.25 5.26L46.25 5.26L46.25 5.26Q45.92 4.93 45.92 4.47L45.92 4.47L45.92 1.81L45.92 1.81Q45.92 1.39 46.19 1.08L46.19 1.08L46.19 1.08Q46.45 0.77 46.86 0.70L46.86 0.70L48.75 0.70L48.75 0.70Q49.15 0.77 49.42 1.08L49.42 1.08L49.42 1.08Q49.69 1.39 49.69 1.81L49.69 1.81L49.69 2.86ZM56.63 0.70L56.63 1.68L55.26 1.68L55.26 10.50L54.28 10.50L54.28 1.68L52.91 1.68L52.91 0.70L56.63 0.70ZM57.54 10.50L57.54 4.62L58.52 4.62L58.52 10.50L57.54 10.50ZM57.54 0.70L60.37 0.70L60.37 0.70Q60.82 0.70 61.15 1.03L61.15 1.03L61.15 1.03Q61.47 1.36 61.47 1.82L61.47 1.82L61.47 4.48L61.47 4.48Q61.47 4.94 61.15 5.27L61.15 5.27L61.15 5.27Q60.82 5.60 60.37 5.60L60.37 5.60L60.02 5.60L61.47 10.50L60.42 10.50L58.73 4.62L60.37 4.62L60.37 4.62Q60.49 4.62 60.49 4.48L60.49 4.48L60.49 1.82L60.49 1.82Q60.49 1.68 60.37 1.68L60.37 1.68L58.52 1.68L58.52 4.62L57.54 1.68L57.54 0.70ZM65.73 10.50L64.48 2.67L63.77 7.20L64.48 7.20L64.48 8.18L63.62 8.18L63.24 10.50L62.24 10.50L62.62 8.18L62.24 8.18L62.24 7.20L62.78 7.20L63.81 0.70L65.16 0.70L66.72 10.50L65.73 10.50ZM70.20 8.34L71.18 8.34L71.18 9.39L71.18 9.39Q71.18 9.81 70.92 10.12L70.92 10.12L70.92 10.12Q70.66 10.43 70.25 10.50L70.25 10.50L68.21 10.50L68.21 10.50Q67.80 10.43 67.54 10.12L67.54 10.12L67.54 10.12Q67.27 9.81 67.27 9.39L67.27 9.39L67.27 1.81L67.27 1.81Q67.27 1.39 67.54 1.08L67.54 1.08L67.54 1.08Q67.80 0.77 68.21 0.70L68.21 0.70L70.25 0.70L70.25 0.70Q70.66 0.77 70.92 1.08L70.92 1.08L70.92 1.08Q71.18 1.39 71.18 1.81L71.18 1.81L71.18 2.86L70.20 2.86L70.20 1.81L70.20 1.81Q70.20 1.67 70.07 1.67L70.07 1.67L68.39 1.67L68.39 1.67Q68.25 1.67 68.25 1.81L68.25 1.81L68.25 9.39L68.25 9.39Q68.25 9.53 68.39 9.53L68.39 9.53L70.07 9.53L70.07 9.53Q70.20 9.53 70.20 9.39L70.20 9.39L70.20 8.34ZM76.02 0.70L74.21 4.44L76.02 10.50L74.97 10.50L73.60 5.73L73.07 6.82L73.07 10.50L72.09 10.50L72.09 4.62L72.09 4.61L73.07 4.61L72.09 1.68L72.09 0.70L73.05 0.70L73.07 0.70L73.07 1.68L73.07 4.61L73.08 4.61L74.94 0.70L76.02 0.70ZM80.44 1.68L77.90 1.68L77.90 4.62L79.94 4.62L79.94 5.60L77.90 5.60L77.90 9.52L80.44 9.52L80.44 10.50L76.92 10.50L76.92 4.62L77.90 4.62L76.92 1.68L76.92 0.70L80.44 0.70L80.44 1.68ZM81.35 10.50L81.35 4.62L82.33 4.62L82.33 10.50L81.35 10.50ZM81.35 0.70L84.18 0.70L84.18 0.70Q84.63 0.70 84.96 1.03L84.96 1.03L84.96 1.03Q85.29 1.36 85.29 1.82L85.29 1.82L85.29 4.48L85.29 4.48Q85.29 4.94 84.96 5.27L84.96 5.27L84.96 5.27Q84.63 5.60 84.18 5.60L84.18 5.60L83.83 5.60L85.29 10.50L84.24 10.50L82.54 4.62L84.18 4.62L84.18 4.62Q84.31 4.62 84.31 4.48L84.31 4.48L84.31 1.82L84.31 1.82Q84.31 1.68 84.18 1.68L84.18 1.68L82.33 1.68L82.33 4.62L81.35 1.68L81.35 0.70Z"></path></g><!----><g data-v-423bf9ae="" id="e906d3b9-2933-4955-8683-a47d32dcd274" transform="matrix(1.1407800273752857,0,0,1.1407800273752857,-35.0740726429384,-11.422808740187556)" stroke="none" fill="black"><path d="M54 12c3 2 6 4 10 6 4 3 5 2 5 7v12c0 5 0 5-4 7-2 1-5 3-7 4v17h6v16c0 1-1 2-2 2s-2-1-2-2V68h-6v-9h-2v28c0 1-1 2-2 2s-2-1-2-2V59h-2v9h-6v13c0 1-1 2-2 2s-2-1-2-2V65h6V48c-2-1-5-3-7-4-5-3-4-2-4-8V25c0-5 1-6 5-8 3-2 6-3 9-5 4-2 5-3 9 0zm2 7l-7-4-7 4-7 4v16l7 4 7 4 7-4 7-4V23l-7-4z"></path></g><!----></svg>