<svg data-v-423bf9ae="" xmlns="http://www.w3.org/2000/svg" viewBox="0 0 28.96184538127638 60" class="icon"><!----><!----><!----><!----><g data-v-423bf9ae="" id="e52b1831-e773-4ff0-8b7c-5b02f3b07651" transform="matrix(0.7605200182501904,0,0,0.7605200182501904,-23.514039227575793,-7.686278723113318)" stroke="none" fill="white"><path d="M54 12c3 2 6 4 10 6 4 3 5 2 5 7v12c0 5 0 5-4 7-2 1-5 3-7 4v17h6v16c0 1-1 2-2 2s-2-1-2-2V68h-6v-9h-2v28c0 1-1 2-2 2s-2-1-2-2V59h-2v9h-6v13c0 1-1 2-2 2s-2-1-2-2V65h6V48c-2-1-5-3-7-4-5-3-4-2-4-8V25c0-5 1-6 5-8 3-2 6-3 9-5 4-2 5-3 9 0zm2 7l-7-4-7 4-7 4v16l7 4 7 4 7-4 7-4V23l-7-4z"></path></g><!----></svg>