<svg data-v-fde0c5aa="" xmlns="http://www.w3.org/2000/svg" viewBox="0 0 300 300" class="icon"><!----><defs data-v-fde0c5aa=""><!----></defs><rect data-v-fde0c5aa="" fill="#000000" x="0" y="0" width="300px" height="300px" class="logo-background-square"></rect><!----><defs data-v-fde0c5aa=""><!----></defs><g data-v-fde0c5aa="" id="051dcdbd-8803-47ac-9939-9a1f708f6297" fill="#C16666" stroke="none" transform="matrix(2.7885734002506983,0,0,2.7885734002506983,10.685146596260182,11.81697801525117)"><path d="M54 12c3 2 6 4 10 6 4 3 5 2 5 7v12c0 5 0 5-4 7-2 1-5 3-7 4v17h6v16c0 1-1 2-2 2s-2-1-2-2V68h-6v-9h-2v28c0 1-1 2-2 2s-2-1-2-2V59h-2v9h-6v13c0 1-1 2-2 2s-2-1-2-2V65h6V48c-2-1-5-3-7-4-5-3-4-2-4-8V25c0-5 1-6 5-8 3-2 6-3 9-5 4-2 5-3 9 0zm2 7l-7-4-7 4-7 4v16l7 4 7 4 7-4 7-4V23l-7-4z"></path></g><!----></svg>